<svg id="svg" version="1.1" xmlns="http://www.w3.org/2000/svg" xmlns:xlink="http://www.w3.org/1999/xlink" width="400" height="400" viewBox="0, 0, 400,400"><g id="svgg"><path id="path0" d="M2.400 0.353 C 2.400 0.548,2.040 0.801,1.600 0.916 C 1.160 1.031,0.800 1.412,0.800 1.763 C 0.800 2.113,0.620 2.400,0.400 2.400 C 0.134 2.400,0.000 68.533,0.000 200.000 C 0.000 357.810,0.101 397.601,0.500 397.606 C 0.866 397.611,0.854 397.705,0.455 397.958 C -0.006 398.249,-0.006 398.337,0.455 398.520 C 0.889 398.693,0.893 398.743,0.471 398.768 C 0.061 398.793,0.078 398.935,0.543 399.400 C 1.274 400.131,1.865 400.168,2.135 399.500 C 2.296 399.100,2.343 399.100,2.368 399.500 C 2.415 400.236,265.597 400.236,265.606 399.500 C 265.610 399.167,265.742 399.200,266.000 399.600 C 266.258 400.000,266.390 400.033,266.394 399.700 C 266.397 399.425,266.826 399.200,267.346 399.200 C 267.866 399.200,268.750 398.840,269.309 398.400 C 269.869 397.960,270.690 397.600,271.135 397.600 C 271.579 397.600,272.234 397.309,272.590 396.952 C 272.947 396.596,273.335 396.401,273.452 396.519 C 273.723 396.790,275.200 395.337,275.200 394.800 C 275.200 394.441,276.108 394.241,277.500 394.293 C 277.775 394.303,278.000 394.140,278.000 393.932 C 278.000 393.723,278.211 393.683,278.468 393.842 C 278.766 394.026,278.857 393.926,278.718 393.564 C 278.598 393.251,278.748 392.765,279.050 392.482 C 279.404 392.151,279.600 392.125,279.600 392.408 C 279.600 392.649,279.789 392.731,280.019 392.588 C 280.301 392.414,280.269 392.119,279.919 391.688 C 279.530 391.207,279.525 391.122,279.900 391.347 C 280.187 391.519,280.400 391.446,280.400 391.175 C 280.400 390.840,280.605 390.863,281.100 391.251 C 281.719 391.737,281.743 391.727,281.303 391.163 C 281.030 390.813,280.940 390.379,281.103 390.199 C 281.267 390.019,281.175 390.001,280.900 390.159 C 280.625 390.318,280.400 390.257,280.400 390.024 C 280.400 389.791,280.555 389.600,280.745 389.600 C 280.934 389.600,281.007 389.172,280.907 388.649 C 280.789 388.032,280.985 387.503,281.463 387.144 C 282.187 386.600,282.797 385.688,283.903 383.500 C 284.209 382.895,284.589 382.400,284.749 382.400 C 284.909 382.400,285.267 381.770,285.546 381.000 C 285.824 380.230,286.198 379.600,286.376 379.600 C 286.554 379.600,286.815 379.027,286.955 378.326 C 287.095 377.626,287.454 376.771,287.754 376.426 C 288.053 376.082,288.392 374.918,288.507 373.840 C 288.636 372.625,288.960 371.742,289.358 371.520 C 289.941 371.193,290.000 367.489,290.000 331.380 C 290.000 292.133,290.011 291.589,290.800 290.800 C 291.585 290.015,292.133 290.000,319.551 290.000 C 343.144 290.000,347.575 289.912,347.971 289.435 C 348.229 289.124,349.322 288.748,350.400 288.600 C 351.478 288.452,352.571 288.076,352.829 287.765 C 353.087 287.454,353.698 287.200,354.188 287.200 C 354.677 287.200,355.493 286.840,356.000 286.400 C 356.507 285.960,357.167 285.600,357.465 285.600 C 357.764 285.600,358.316 285.240,358.693 284.800 C 359.070 284.360,359.617 284.000,359.908 284.000 C 360.654 284.000,368.400 276.173,368.400 275.420 C 368.400 275.079,368.589 274.800,368.820 274.800 C 369.052 274.800,369.499 274.182,369.814 273.427 C 370.130 272.672,370.547 271.956,370.742 271.836 C 370.937 271.715,371.201 271.095,371.329 270.457 C 371.456 269.818,371.818 269.039,372.132 268.725 C 372.447 268.411,372.835 267.354,372.995 266.377 C 373.156 265.400,373.582 264.266,373.944 263.858 C 374.549 263.174,374.608 252.866,374.706 131.558 L 374.813 0.000 188.606 0.000 C 81.125 0.000,2.400 0.149,2.400 0.353 " stroke="none" fill="#fce47c" fill-rule="evenodd"></path><path id="path1" d="M376.799 3.100 C 376.798 4.805,376.789 62.090,376.779 130.400 C 376.769 198.710,376.606 255.770,376.418 257.200 C 375.879 261.294,374.830 266.480,374.444 266.961 C 374.251 267.202,373.970 267.973,373.820 268.672 C 373.671 269.372,373.302 270.150,373.000 270.400 C 372.698 270.650,372.338 271.370,372.200 272.000 C 372.062 272.630,371.690 273.359,371.374 273.621 C 371.058 273.883,370.800 274.257,370.800 274.452 C 370.800 274.981,368.601 277.916,366.658 279.982 C 364.035 282.770,359.633 286.400,358.876 286.400 C 358.668 286.400,358.289 286.652,358.033 286.961 C 357.777 287.269,357.080 287.643,356.484 287.792 C 355.888 287.941,355.130 288.289,354.800 288.566 C 354.277 289.005,352.231 289.607,347.800 290.624 C 347.140 290.775,334.571 290.865,319.870 290.823 C 296.037 290.756,293.035 290.816,292.170 291.383 L 291.200 292.018 291.192 325.909 C 291.181 370.839,290.943 373.813,286.793 380.800 C 286.597 381.130,285.873 382.525,285.185 383.900 C 284.497 385.275,283.768 386.400,283.567 386.400 C 283.365 386.400,283.200 386.760,283.200 387.200 C 283.200 387.644,282.933 388.000,282.600 388.000 C 282.267 388.000,282.000 388.356,282.000 388.800 C 282.000 389.828,283.207 389.859,283.474 388.837 C 283.584 388.417,284.017 387.984,284.437 387.874 C 284.973 387.734,285.200 387.319,285.200 386.480 C 285.200 385.787,285.452 385.189,285.800 385.055 C 286.130 384.929,286.400 384.532,286.400 384.174 C 286.400 383.816,286.662 383.046,286.982 382.462 C 288.097 380.428,289.600 376.919,289.600 376.350 C 289.600 376.036,289.862 375.404,290.181 374.948 C 291.596 372.928,291.760 368.649,291.888 330.434 C 291.979 302.903,292.134 292.921,292.475 292.510 C 292.863 292.042,297.139 291.965,319.017 292.032 C 333.361 292.075,345.284 291.996,345.512 291.854 C 345.741 291.713,351.569 291.435,358.464 291.236 C 371.523 290.859,375.497 290.248,378.589 288.138 C 379.023 287.842,379.676 287.600,380.040 287.600 C 380.404 287.600,380.926 287.330,381.200 287.000 C 381.474 286.670,382.012 286.400,382.395 286.400 C 382.778 286.400,383.550 286.040,384.109 285.600 C 384.669 285.160,385.394 284.800,385.720 284.800 C 386.047 284.800,386.424 284.515,386.557 284.167 C 386.691 283.818,387.024 283.608,387.297 283.699 C 387.854 283.885,388.800 283.085,388.800 282.429 C 388.800 282.193,389.145 282.000,389.567 282.000 C 390.678 282.000,391.629 281.570,391.386 281.178 C 391.272 280.992,391.548 280.642,392.000 280.400 C 392.452 280.158,392.738 279.823,392.635 279.656 C 392.532 279.489,392.960 278.869,393.586 278.278 C 394.400 277.510,394.661 276.955,394.500 276.338 C 394.309 275.608,394.408 275.509,395.137 275.700 C 395.612 275.824,395.923 275.799,395.827 275.644 C 395.583 275.248,396.060 274.611,397.000 274.078 C 397.440 273.828,397.584 273.619,397.320 273.612 C 396.964 273.603,396.985 273.254,397.405 272.251 C 397.715 271.509,397.840 270.760,397.684 270.587 C 397.528 270.413,397.589 270.379,397.820 270.510 C 398.425 270.853,399.018 269.650,399.154 267.800 C 399.218 266.920,399.435 266.140,399.636 266.067 C 400.511 265.746,400.078 1.678,399.200 0.800 C 398.440 0.040,397.867 0.000,387.600 0.000 L 376.800 0.000 376.799 3.100 M276.800 394.746 C 276.800 395.010,276.395 395.389,275.900 395.588 L 275.000 395.949 275.913 395.975 C 276.796 395.999,277.557 395.023,277.049 394.516 C 276.912 394.379,276.800 394.482,276.800 394.746 " stroke="none" fill="#fccb5c" fill-rule="evenodd"></path><path id="path2" d="M395.077 275.480 C 394.222 275.702,394.332 277.000,395.205 277.000 C 395.542 277.000,395.820 276.609,395.845 276.100 C 395.870 275.605,395.870 275.221,395.845 275.246 C 395.820 275.272,395.475 275.377,395.077 275.480 M388.800 282.429 C 388.800 283.085,387.854 283.885,387.297 283.699 C 387.024 283.608,386.691 283.818,386.557 284.167 C 386.424 284.515,386.047 284.800,385.720 284.800 C 385.394 284.800,384.669 285.160,384.109 285.600 C 383.550 286.040,382.778 286.400,382.395 286.400 C 382.012 286.400,381.474 286.670,381.200 287.000 C 380.926 287.330,380.404 287.600,380.040 287.600 C 379.676 287.600,379.023 287.842,378.589 288.138 C 375.497 290.248,371.523 290.859,358.464 291.236 C 351.569 291.435,345.741 291.713,345.512 291.854 C 345.284 291.996,333.361 292.075,319.017 292.032 C 297.139 291.965,292.863 292.042,292.475 292.510 C 292.134 292.921,291.979 302.903,291.888 330.434 C 291.760 368.649,291.596 372.928,290.181 374.948 C 289.862 375.404,289.600 376.036,289.600 376.350 C 289.600 376.919,288.097 380.428,286.982 382.462 C 286.662 383.046,286.400 383.816,286.400 384.174 C 286.400 384.532,286.130 384.929,285.800 385.055 C 284.996 385.364,285.027 386.800,285.837 386.800 C 286.188 386.800,286.569 386.440,286.684 386.000 C 286.800 385.557,287.230 385.200,287.647 385.200 C 288.118 385.200,288.400 384.918,288.400 384.447 C 288.400 384.030,288.757 383.600,289.200 383.484 C 289.640 383.369,290.000 382.988,290.000 382.637 C 290.000 382.267,290.335 382.000,290.800 382.000 C 291.333 382.000,291.600 381.733,291.600 381.200 C 291.600 380.756,291.867 380.400,292.200 380.400 C 292.533 380.400,292.800 380.044,292.800 379.600 C 292.800 379.067,293.067 378.800,293.600 378.800 C 294.133 378.800,294.400 378.533,294.400 378.000 C 294.400 377.467,294.667 377.200,295.200 377.200 C 295.733 377.200,296.000 376.933,296.000 376.400 C 296.000 375.867,296.267 375.600,296.800 375.600 C 297.244 375.600,297.600 375.333,297.600 375.000 C 297.600 374.670,297.947 374.400,298.372 374.400 C 298.866 374.400,299.194 374.075,299.282 373.500 C 299.357 373.005,299.655 372.650,299.944 372.711 C 300.233 372.773,300.564 372.458,300.681 372.011 C 300.800 371.559,301.226 371.200,301.647 371.200 C 302.133 371.200,302.400 370.917,302.400 370.400 C 302.400 369.960,302.658 369.600,302.973 369.600 C 303.288 369.600,303.654 369.259,303.786 368.843 C 303.918 368.427,304.381 367.994,304.813 367.881 C 305.246 367.767,305.600 367.388,305.600 367.037 C 305.600 366.667,305.935 366.400,306.400 366.400 C 306.933 366.400,307.200 366.133,307.200 365.600 C 307.200 365.156,307.467 364.800,307.800 364.800 C 308.133 364.800,308.400 364.444,308.400 364.000 C 308.400 363.467,308.667 363.200,309.200 363.200 C 309.733 363.200,310.000 362.933,310.000 362.400 C 310.000 361.867,310.267 361.600,310.800 361.600 C 311.333 361.600,311.600 361.333,311.600 360.800 C 311.600 360.267,311.867 360.000,312.400 360.000 C 312.933 360.000,313.200 359.733,313.200 359.200 C 313.200 358.667,313.467 358.400,314.000 358.400 C 314.444 358.400,314.800 358.133,314.800 357.800 C 314.800 357.467,315.156 357.200,315.600 357.200 C 316.133 357.200,316.400 356.933,316.400 356.400 C 316.400 355.935,316.667 355.600,317.037 355.600 C 317.388 355.600,317.767 355.246,317.881 354.813 C 317.994 354.381,318.427 353.918,318.843 353.786 C 319.259 353.654,319.600 353.288,319.600 352.973 C 319.600 352.658,319.960 352.400,320.400 352.400 C 320.917 352.400,321.200 352.133,321.200 351.647 C 321.200 351.226,321.559 350.800,322.011 350.681 C 322.458 350.564,322.773 350.233,322.711 349.944 C 322.650 349.655,323.005 349.357,323.500 349.282 C 324.075 349.194,324.400 348.866,324.400 348.372 C 324.400 347.947,324.670 347.600,325.000 347.600 C 325.333 347.600,325.600 347.244,325.600 346.800 C 325.600 346.267,325.867 346.000,326.400 346.000 C 326.933 346.000,327.200 345.733,327.200 345.200 C 327.200 344.667,327.467 344.400,328.000 344.400 C 328.533 344.400,328.800 344.133,328.800 343.600 C 328.800 343.067,329.067 342.800,329.600 342.800 C 330.044 342.800,330.400 342.533,330.400 342.200 C 330.400 341.867,330.756 341.600,331.200 341.600 C 331.717 341.600,332.000 341.333,332.000 340.847 C 332.000 340.430,332.357 340.000,332.800 339.884 C 333.240 339.769,333.600 339.388,333.600 339.037 C 333.600 338.667,333.935 338.400,334.400 338.400 C 334.917 338.400,335.200 338.133,335.200 337.647 C 335.200 337.230,335.557 336.800,336.000 336.684 C 336.440 336.569,336.800 336.188,336.800 335.837 C 336.800 335.467,337.135 335.200,337.600 335.200 C 338.117 335.200,338.400 334.933,338.400 334.447 C 338.400 334.030,338.757 333.600,339.200 333.484 C 339.640 333.369,340.000 332.988,340.000 332.637 C 340.000 332.267,340.335 332.000,340.800 332.000 C 341.333 332.000,341.600 331.733,341.600 331.200 C 341.600 330.756,341.867 330.400,342.200 330.400 C 342.533 330.400,342.800 330.044,342.800 329.600 C 342.800 329.067,343.067 328.800,343.600 328.800 C 344.133 328.800,344.400 328.533,344.400 328.000 C 344.400 327.467,344.667 327.200,345.200 327.200 C 345.733 327.200,346.000 326.933,346.000 326.400 C 346.000 325.867,346.267 325.600,346.800 325.600 C 347.244 325.600,347.600 325.333,347.600 325.000 C 347.600 324.670,347.947 324.400,348.372 324.400 C 348.866 324.400,349.194 324.075,349.282 323.500 C 349.357 323.005,349.655 322.650,349.944 322.711 C 350.233 322.773,350.564 322.458,350.681 322.011 C 350.800 321.559,351.226 321.200,351.647 321.200 C 352.133 321.200,352.400 320.917,352.400 320.400 C 352.400 319.960,352.658 319.600,352.973 319.600 C 353.288 319.600,353.654 319.259,353.786 318.843 C 353.918 318.427,354.381 317.994,354.813 317.881 C 355.246 317.767,355.600 317.388,355.600 317.037 C 355.600 316.667,355.935 316.400,356.400 316.400 C 356.933 316.400,357.200 316.133,357.200 315.600 C 357.200 315.156,357.467 314.800,357.800 314.800 C 358.133 314.800,358.400 314.444,358.400 314.000 C 358.400 313.467,358.667 313.200,359.200 313.200 C 359.733 313.200,360.000 312.933,360.000 312.400 C 360.000 311.867,360.267 311.600,360.800 311.600 C 361.333 311.600,361.600 311.333,361.600 310.800 C 361.600 310.267,361.867 310.000,362.400 310.000 C 362.933 310.000,363.200 309.733,363.200 309.200 C 363.200 308.667,363.467 308.400,364.000 308.400 C 364.444 308.400,364.800 308.133,364.800 307.800 C 364.800 307.467,365.156 307.200,365.600 307.200 C 366.117 307.200,366.400 306.933,366.400 306.447 C 366.400 306.030,366.757 305.600,367.200 305.484 C 367.640 305.369,368.000 305.000,368.000 304.664 C 368.000 304.329,368.360 303.940,368.800 303.800 C 369.240 303.660,369.600 303.288,369.600 302.973 C 369.600 302.658,369.960 302.400,370.400 302.400 C 370.917 302.400,371.200 302.133,371.200 301.647 C 371.200 301.226,371.559 300.800,372.011 300.681 C 372.458 300.564,372.773 300.233,372.711 299.944 C 372.650 299.655,373.005 299.357,373.500 299.282 C 374.075 299.194,374.400 298.866,374.400 298.372 C 374.400 297.947,374.670 297.600,375.000 297.600 C 375.333 297.600,375.600 297.244,375.600 296.800 C 375.600 296.267,375.867 296.000,376.400 296.000 C 376.933 296.000,377.200 295.733,377.200 295.200 C 377.200 294.667,377.467 294.400,378.000 294.400 C 378.533 294.400,378.800 294.133,378.800 293.600 C 378.800 293.067,379.067 292.800,379.600 292.800 C 380.044 292.800,380.400 292.533,380.400 292.200 C 380.400 291.867,380.756 291.600,381.200 291.600 C 381.717 291.600,382.000 291.333,382.000 290.847 C 382.000 290.430,382.357 290.000,382.800 289.884 C 383.240 289.769,383.600 289.388,383.600 289.037 C 383.600 288.667,383.935 288.400,384.400 288.400 C 384.917 288.400,385.200 288.133,385.200 287.647 C 385.200 287.230,385.557 286.800,386.000 286.684 C 386.440 286.569,386.800 286.188,386.800 285.837 C 386.800 285.467,387.135 285.200,387.600 285.200 C 388.133 285.200,388.400 284.933,388.400 284.400 C 388.400 283.867,388.667 283.600,389.200 283.600 C 389.733 283.600,390.000 283.333,390.000 282.800 C 390.000 282.356,389.733 282.000,389.400 282.000 C 389.070 282.000,388.800 282.193,388.800 282.429 " stroke="none" fill="#fcac44" fill-rule="evenodd"></path><path id="path3" d="M375.866 1.100 C 375.741 1.705,375.629 58.785,375.618 127.945 C 375.597 258.174,375.562 261.064,373.944 265.800 C 370.668 275.389,362.577 284.823,355.433 287.382 C 354.755 287.625,353.840 288.022,353.400 288.265 C 352.960 288.507,351.970 288.837,351.200 288.999 C 350.430 289.160,349.547 289.497,349.239 289.746 C 348.837 290.071,340.546 290.257,320.106 290.400 C 292.407 290.594,291.518 290.624,290.968 291.376 C 290.486 292.036,290.410 297.982,290.467 330.776 C 290.504 352.019,290.662 367.510,290.818 365.200 C 290.974 362.890,291.124 345.479,291.151 326.509 L 291.200 292.018 292.170 291.383 C 293.035 290.816,296.037 290.756,319.870 290.823 C 334.571 290.865,347.140 290.775,347.800 290.624 C 352.231 289.607,354.277 289.005,354.800 288.566 C 355.130 288.289,355.888 287.941,356.484 287.792 C 357.080 287.643,357.777 287.269,358.033 286.961 C 358.289 286.652,358.668 286.400,358.876 286.400 C 359.633 286.400,364.035 282.770,366.658 279.982 C 368.601 277.916,370.800 274.981,370.800 274.452 C 370.800 274.257,371.058 273.883,371.374 273.621 C 371.690 273.359,372.062 272.630,372.200 272.000 C 372.338 271.370,372.698 270.650,373.000 270.400 C 373.302 270.150,373.671 269.372,373.820 268.672 C 373.970 267.973,374.251 267.202,374.444 266.961 C 374.831 266.480,375.879 261.293,376.418 257.200 C 376.874 253.736,376.900 -0.000,376.444 -0.000 C 376.251 -0.000,375.991 0.495,375.866 1.100 M290.060 370.654 C 290.027 371.124,289.731 372.024,289.402 372.654 C 289.074 373.284,288.814 374.250,288.824 374.800 C 288.839 375.564,289.032 375.336,289.642 373.832 C 290.081 372.750,290.368 371.400,290.280 370.832 C 290.152 370.007,290.108 369.972,290.060 370.654 M287.896 377.316 C 287.529 378.022,287.112 379.095,286.970 379.700 C 286.829 380.305,286.565 380.800,286.384 380.800 C 286.202 380.800,285.940 381.159,285.801 381.598 C 285.662 382.036,285.334 382.624,285.074 382.904 C 284.813 383.183,284.240 384.129,283.800 385.005 C 283.360 385.881,282.574 386.999,282.053 387.488 C 281.380 388.121,281.198 388.584,281.423 389.089 C 281.705 389.720,281.758 389.699,281.898 388.900 C 281.985 388.405,282.313 388.000,282.628 388.000 C 282.943 388.000,283.200 387.640,283.200 387.200 C 283.200 386.760,283.365 386.400,283.567 386.400 C 283.768 386.400,284.497 385.275,285.185 383.900 C 285.873 382.525,286.597 381.130,286.794 380.800 C 287.658 379.347,288.922 376.389,288.752 376.219 C 288.649 376.116,288.264 376.609,287.896 377.316 " stroke="none" fill="#fcd46c" fill-rule="evenodd"></path><path id="path4" d="M0.700 0.833 C -0.054 1.659,-0.218 2.400,0.353 2.400 C 0.548 2.400,0.801 2.040,0.916 1.600 C 1.031 1.160,1.412 0.800,1.763 0.800 C 2.113 0.800,2.400 0.620,2.400 0.400 C 2.400 -0.240,1.461 -0.000,0.700 0.833 M374.706 131.558 C 374.608 252.866,374.549 263.174,373.944 263.858 C 373.582 264.266,373.156 265.400,372.995 266.377 C 372.835 267.354,372.447 268.411,372.132 268.725 C 371.818 269.039,371.456 269.818,371.329 270.457 C 371.201 271.095,370.937 271.715,370.742 271.836 C 370.547 271.956,370.130 272.672,369.814 273.427 C 369.499 274.182,369.052 274.800,368.820 274.800 C 368.589 274.800,368.400 275.079,368.400 275.420 C 368.400 276.173,360.654 284.000,359.908 284.000 C 359.617 284.000,359.070 284.360,358.693 284.800 C 358.316 285.240,357.764 285.600,357.465 285.600 C 357.167 285.600,356.507 285.960,356.000 286.400 C 355.493 286.840,354.677 287.200,354.188 287.200 C 353.698 287.200,353.087 287.454,352.829 287.765 C 352.571 288.076,351.478 288.452,350.400 288.600 C 348.363 288.880,346.705 290.000,348.327 290.000 C 348.781 290.000,349.251 289.840,349.372 289.645 C 349.493 289.450,350.265 289.164,351.088 289.010 C 351.912 288.855,352.949 288.525,353.393 288.276 C 353.837 288.027,354.755 287.625,355.433 287.382 C 365.478 283.784,374.211 270.720,375.208 257.800 C 375.873 249.178,375.968 -0.000,375.306 -0.000 C 374.916 -0.000,374.791 27.554,374.706 131.558 M290.800 290.800 C 290.010 291.590,290.001 292.068,290.096 330.900 L 290.192 370.200 290.396 330.920 C 290.559 299.442,290.703 291.537,291.120 291.120 C 291.532 290.707,297.396 290.558,319.520 290.395 L 347.400 290.189 319.500 290.095 C 292.069 290.002,291.587 290.013,290.800 290.800 M289.245 371.572 C 288.952 371.753,288.620 372.778,288.506 373.851 C 288.392 374.923,288.053 376.082,287.754 376.426 C 287.454 376.771,287.095 377.626,286.955 378.326 C 286.815 379.027,286.554 379.600,286.376 379.600 C 286.198 379.600,285.824 380.230,285.546 381.000 C 285.267 381.770,284.909 382.400,284.749 382.400 C 284.589 382.400,284.209 382.895,283.903 383.500 C 282.797 385.688,282.187 386.600,281.463 387.144 C 280.985 387.503,280.789 388.032,280.907 388.649 C 281.007 389.172,280.934 389.600,280.745 389.600 C 280.555 389.600,280.400 389.791,280.400 390.024 C 280.400 390.257,280.625 390.312,280.900 390.147 C 281.271 389.924,281.265 390.013,280.878 390.491 C 280.440 391.032,280.454 391.121,280.966 391.046 C 281.986 390.896,282.160 390.447,281.603 389.405 C 281.123 388.509,281.166 388.322,282.035 387.505 C 282.566 387.006,283.360 385.881,283.800 385.005 C 284.240 384.129,284.813 383.183,285.074 382.904 C 285.334 382.624,285.662 382.036,285.801 381.598 C 285.940 381.159,286.207 380.800,286.395 380.800 C 286.583 380.800,286.862 380.230,287.015 379.533 C 287.168 378.837,287.631 377.712,288.045 377.033 C 288.459 376.355,288.799 375.350,288.801 374.800 C 288.803 374.250,289.077 373.278,289.410 372.640 C 290.081 371.353,290.039 371.082,289.245 371.572 M276.427 394.700 C 276.067 395.311,275.963 395.323,275.613 394.800 C 275.266 394.280,275.211 394.289,275.206 394.867 C 275.203 395.233,274.975 395.637,274.700 395.763 C 274.425 395.889,274.650 395.882,275.200 395.747 C 276.216 395.497,277.960 394.000,277.235 394.000 C 277.018 394.000,276.654 394.315,276.427 394.700 M269.897 398.050 C 269.049 398.524,268.988 399.067,269.782 399.067 C 270.103 399.067,270.282 398.932,270.180 398.767 C 270.078 398.603,270.221 398.388,270.498 398.289 C 270.774 398.190,270.909 398.008,270.797 397.885 C 270.685 397.761,270.280 397.835,269.897 398.050 " stroke="none" fill="#fcdc6c" fill-rule="evenodd"></path></g></svg>